<mxfile host="app.diagrams.net" modified="2022-04-24T17:33:50.281Z" agent="5.0 (Windows NT 10.0; Win64; x64) AppleWebKit/537.36 (KHTML, like Gecko) Chrome/100.0.4896.127 Safari/537.36" etag="J2D_-SDqD-olXWU7vmWc" version="17.4.6" type="github">
  <diagram id="MGcv_g1UTAX9x_RFuKzL" name="Page-1">
    <mxGraphModel dx="782" dy="436" grid="1" gridSize="10" guides="1" tooltips="1" connect="1" arrows="1" fold="1" page="1" pageScale="1" pageWidth="850" pageHeight="1100" math="0" shadow="0">
      <root>
        <mxCell id="0" />
        <mxCell id="1" parent="0" />
        <mxCell id="AS0sbPmB8oaA7Vb-O9PP-2" style="edgeStyle=orthogonalEdgeStyle;rounded=0;orthogonalLoop=1;jettySize=auto;html=1;exitX=0.5;exitY=1;exitDx=0;exitDy=0;entryX=0.25;entryY=0;entryDx=0;entryDy=0;entryPerimeter=0;" edge="1" parent="1" source="AS0sbPmB8oaA7Vb-O9PP-1" target="AS0sbPmB8oaA7Vb-O9PP-3">
          <mxGeometry relative="1" as="geometry">
            <mxPoint x="410" y="320" as="targetPoint" />
          </mxGeometry>
        </mxCell>
        <mxCell id="AS0sbPmB8oaA7Vb-O9PP-1" value="waiting" style="ellipse;whiteSpace=wrap;html=1;aspect=fixed;" vertex="1" parent="1">
          <mxGeometry x="360" y="190" width="80" height="80" as="geometry" />
        </mxCell>
        <mxCell id="AS0sbPmB8oaA7Vb-O9PP-6" style="edgeStyle=orthogonalEdgeStyle;rounded=0;orthogonalLoop=1;jettySize=auto;html=1;exitX=0.5;exitY=1;exitDx=0;exitDy=0;fontSize=12;" edge="1" parent="1" source="AS0sbPmB8oaA7Vb-O9PP-3">
          <mxGeometry relative="1" as="geometry">
            <mxPoint x="510" y="450" as="targetPoint" />
          </mxGeometry>
        </mxCell>
        <mxCell id="AS0sbPmB8oaA7Vb-O9PP-3" value="power on" style="ellipse;whiteSpace=wrap;html=1;aspect=fixed;" vertex="1" parent="1">
          <mxGeometry x="470" y="310" width="80" height="80" as="geometry" />
        </mxCell>
        <mxCell id="AS0sbPmB8oaA7Vb-O9PP-4" value="&lt;b&gt;&lt;u&gt;&lt;font style=&quot;font-size: 18px&quot;&gt;A Toaster&lt;/font&gt;&lt;/u&gt;&lt;/b&gt;" style="text;html=1;align=center;verticalAlign=middle;resizable=0;points=[];autosize=1;strokeColor=none;fillColor=none;" vertex="1" parent="1">
          <mxGeometry x="590" y="190" width="100" height="20" as="geometry" />
        </mxCell>
        <mxCell id="AS0sbPmB8oaA7Vb-O9PP-5" value="&lt;font style=&quot;font-size: 12px&quot;&gt;turn on&lt;/font&gt;" style="text;html=1;align=center;verticalAlign=middle;resizable=0;points=[];autosize=1;strokeColor=none;fillColor=none;fontSize=18;" vertex="1" parent="1">
          <mxGeometry x="445" y="265" width="50" height="30" as="geometry" />
        </mxCell>
        <mxCell id="AS0sbPmB8oaA7Vb-O9PP-7" value="insert the bread" style="text;html=1;align=center;verticalAlign=middle;resizable=0;points=[];autosize=1;strokeColor=none;fillColor=none;fontSize=12;" vertex="1" parent="1">
          <mxGeometry x="510" y="410" width="100" height="20" as="geometry" />
        </mxCell>
        <mxCell id="AS0sbPmB8oaA7Vb-O9PP-9" style="edgeStyle=orthogonalEdgeStyle;rounded=0;orthogonalLoop=1;jettySize=auto;html=1;exitX=0;exitY=0.5;exitDx=0;exitDy=0;fontSize=12;" edge="1" parent="1" source="AS0sbPmB8oaA7Vb-O9PP-8">
          <mxGeometry relative="1" as="geometry">
            <mxPoint x="390" y="490" as="targetPoint" />
          </mxGeometry>
        </mxCell>
        <mxCell id="AS0sbPmB8oaA7Vb-O9PP-8" value="toasting" style="ellipse;whiteSpace=wrap;html=1;aspect=fixed;fontSize=12;" vertex="1" parent="1">
          <mxGeometry x="470" y="450" width="80" height="80" as="geometry" />
        </mxCell>
        <mxCell id="AS0sbPmB8oaA7Vb-O9PP-10" value="eject bread" style="text;html=1;align=center;verticalAlign=middle;resizable=0;points=[];autosize=1;strokeColor=none;fillColor=none;fontSize=12;" vertex="1" parent="1">
          <mxGeometry x="400" y="490" width="70" height="20" as="geometry" />
        </mxCell>
        <mxCell id="AS0sbPmB8oaA7Vb-O9PP-14" style="edgeStyle=orthogonalEdgeStyle;rounded=0;orthogonalLoop=1;jettySize=auto;html=1;fontSize=12;" edge="1" parent="1" source="AS0sbPmB8oaA7Vb-O9PP-13">
          <mxGeometry relative="1" as="geometry">
            <mxPoint x="350" y="410" as="targetPoint" />
          </mxGeometry>
        </mxCell>
        <mxCell id="AS0sbPmB8oaA7Vb-O9PP-13" value="bread ejected" style="ellipse;whiteSpace=wrap;html=1;aspect=fixed;fontSize=12;" vertex="1" parent="1">
          <mxGeometry x="310" y="450" width="80" height="80" as="geometry" />
        </mxCell>
        <mxCell id="AS0sbPmB8oaA7Vb-O9PP-15" value="remove bread" style="text;html=1;align=center;verticalAlign=middle;resizable=0;points=[];autosize=1;strokeColor=none;fillColor=none;fontSize=12;" vertex="1" parent="1">
          <mxGeometry x="260" y="420" width="90" height="20" as="geometry" />
        </mxCell>
        <mxCell id="AS0sbPmB8oaA7Vb-O9PP-17" style="edgeStyle=orthogonalEdgeStyle;rounded=0;orthogonalLoop=1;jettySize=auto;html=1;entryX=0;entryY=1;entryDx=0;entryDy=0;fontSize=12;" edge="1" parent="1" source="AS0sbPmB8oaA7Vb-O9PP-16" target="AS0sbPmB8oaA7Vb-O9PP-1">
          <mxGeometry relative="1" as="geometry" />
        </mxCell>
        <mxCell id="AS0sbPmB8oaA7Vb-O9PP-16" value="power on" style="ellipse;whiteSpace=wrap;html=1;aspect=fixed;fontSize=12;" vertex="1" parent="1">
          <mxGeometry x="310" y="330" width="80" height="80" as="geometry" />
        </mxCell>
        <mxCell id="AS0sbPmB8oaA7Vb-O9PP-18" value="shut down" style="text;html=1;align=center;verticalAlign=middle;resizable=0;points=[];autosize=1;strokeColor=none;fillColor=none;fontSize=12;" vertex="1" parent="1">
          <mxGeometry x="280" y="290" width="70" height="20" as="geometry" />
        </mxCell>
      </root>
    </mxGraphModel>
  </diagram>
</mxfile>
